<svg width="82" height="16" viewBox="0 0 82 16" fill="none" xmlns="http://www.w3.org/2000/svg">
<path d="M0.08 1.66H3.28L6.12 10.5L8.96 1.66H11.08L13.92 10.5L16.76 1.66H19.96L15.42 15H12.82L10.02 6.9L7.22 15H4.62L0.08 1.66ZM22.9383 9.32H26.8383C26.8183 9.24 26.6783 8.68 26.2583 8.28C25.9383 7.98 25.4783 7.78 24.8983 7.78C24.1583 7.78 23.7183 8.08 23.4383 8.36C23.2183 8.6 23.0183 8.92 22.9383 9.32ZM29.4983 10.74V11.04H22.8383C22.8383 11.52 23.0183 12.16 23.3783 12.56C23.8183 13.04 24.4183 13.12 24.8583 13.12C25.2783 13.12 25.7183 13.04 26.0183 12.86C26.0583 12.84 26.3983 12.62 26.6383 12.12L29.3583 12.4C28.9583 13.66 28.1583 14.32 27.6383 14.64C26.7783 15.16 25.8183 15.3 24.8183 15.3C23.4783 15.3 22.2983 15.06 21.2583 14.02C20.4783 13.24 19.9183 12.06 19.9183 10.58C19.9183 9.3 20.3783 7.98 21.2783 7.06C22.3583 5.98 23.6983 5.78 24.6983 5.78C25.6983 5.78 27.1383 5.96 28.2383 7.12C29.2983 8.24 29.4983 9.64 29.4983 10.74ZM38.1358 7.08V6.08H41.0158V15H38.1358V13.92C37.3558 15.12 36.2358 15.3 35.4958 15.3C34.2158 15.3 33.1358 14.98 32.1558 13.94C31.2158 12.94 30.8558 11.78 30.8558 10.6C30.8558 9.1 31.4158 7.82 32.2358 7C33.0158 6.22 34.0958 5.78 35.3358 5.78C36.0958 5.78 37.3158 5.96 38.1358 7.08ZM36.0558 8.26C35.4358 8.26 34.8558 8.52 34.4758 8.9C34.1758 9.2 33.8158 9.72 33.8158 10.52C33.8158 11.32 34.1558 11.84 34.4158 12.12C34.8158 12.54 35.4358 12.82 36.1158 12.82C36.6958 12.82 37.2358 12.58 37.6158 12.2C37.9958 11.84 38.3158 11.28 38.3158 10.52C38.3158 9.88 38.0758 9.28 37.6558 8.88C37.2158 8.46 36.5758 8.26 36.0558 8.26ZM47.9889 8.4H46.2089V15H43.3289V8.4H42.3289V6.08H43.3289V3.2H46.2089V6.08H47.9889V8.4ZM49.3055 15V0.419999H52.1855V7.14C52.5455 6.7 52.9255 6.4 53.2655 6.22C53.8655 5.9 54.3655 5.84 55.0055 5.84C55.7055 5.84 56.7455 5.94 57.5255 6.74C58.3455 7.56 58.4055 8.66 58.4055 9.34V15H55.5255V10.42C55.5255 9.8 55.5055 9.08 55.0455 8.64C54.7855 8.38 54.3455 8.24 53.9255 8.24C53.3055 8.24 52.9455 8.52 52.7855 8.68C52.2055 9.24 52.1855 10.1 52.1855 10.54V15H49.3055ZM62.8016 9.32H66.7016C66.6816 9.24 66.5416 8.68 66.1216 8.28C65.8016 7.98 65.3416 7.78 64.7616 7.78C64.0216 7.78 63.5816 8.08 63.3016 8.36C63.0816 8.6 62.8816 8.92 62.8016 9.32ZM69.3616 10.74V11.04H62.7016C62.7016 11.52 62.8816 12.16 63.2416 12.56C63.6816 13.04 64.2816 13.12 64.7216 13.12C65.1416 13.12 65.5816 13.04 65.8816 12.86C65.9216 12.84 66.2616 12.62 66.5016 12.12L69.2216 12.4C68.8216 13.66 68.0216 14.32 67.5016 14.64C66.6416 15.16 65.6816 15.3 64.6816 15.3C63.3416 15.3 62.1616 15.06 61.1216 14.02C60.3416 13.24 59.7816 12.06 59.7816 10.58C59.7816 9.3 60.2416 7.98 61.1416 7.06C62.2216 5.98 63.5616 5.78 64.5616 5.78C65.5616 5.78 67.0016 5.96 68.1016 7.12C69.1616 8.24 69.3616 9.64 69.3616 10.74ZM71.1591 15V6.08H74.0391V7.48C74.2991 6.98 74.6991 6.52 75.1591 6.24C75.6391 5.94 76.1391 5.86 76.6991 5.86C77.0591 5.86 77.3191 5.9 77.6391 6L77.4791 8.7C77.0991 8.5 76.6791 8.38 76.1791 8.38C75.5591 8.38 75.0991 8.6 74.7391 8.98C74.0991 9.66 74.0391 10.62 74.0391 11.38V15H71.1591ZM77.6397 13.5C77.6397 12.48 78.4397 11.68 79.4597 11.68C80.4797 11.68 81.2797 12.48 81.2797 13.5C81.2797 14.52 80.4797 15.32 79.4597 15.32C78.4397 15.32 77.6397 14.52 77.6397 13.5Z" fill="black"/>
</svg>
